<svg width="204" height="116" viewBox="0 0 204 116" fill="none" xmlns="http://www.w3.org/2000/svg">
<path d="M45.3971 97.9443C45.3971 94.5181 42.9095 92.173 40.0238 92.173C37.1382 92.173 34.6505 94.5181 34.6505 97.9443C34.6505 101.337 37.1382 103.716 40.0238 103.716C42.9095 103.716 45.3971 101.332 45.3971 97.9443ZM49.5809 97.9443C49.5809 103.424 45.2908 107.47 40.0261 107.47C34.7613 107.47 30.4713 103.426 30.4713 97.9443C30.4713 92.4217 34.7613 88.4189 40.0261 88.4189C45.2908 88.4189 49.5809 92.4217 49.5809 97.9443ZM66.0129 97.9443C66.0129 94.5181 63.5252 92.173 60.6396 92.173C57.7539 92.173 55.2663 94.5181 55.2663 97.9443C55.2663 101.337 57.7539 103.716 60.6396 103.716C63.5252 103.716 66.0129 101.332 66.0129 97.9443ZM70.1966 97.9443C70.1966 103.424 65.9066 107.47 60.6418 107.47C55.3771 107.47 51.0848 103.426 51.0848 97.9443C51.0848 92.4217 55.3748 88.4189 60.6396 88.4189C65.9043 88.4189 70.1966 92.4217 70.1966 97.9443ZM86.2532 97.9782C86.2532 94.6244 84.0143 92.173 81.1694 92.173C78.2837 92.173 75.8662 94.6267 75.8662 97.9782C75.8662 101.298 78.286 103.716 81.1694 103.716C84.0188 103.716 86.2532 101.296 86.2532 97.9782ZM89.9304 88.9933V106.095C89.9304 113.128 85.7805 116 80.8776 116C76.2597 116 73.4826 112.913 72.4355 110.387L76.0539 108.872C76.7052 110.423 78.2927 112.253 80.8482 112.253C83.9872 112.253 85.9321 110.315 85.9321 106.667V105.296H85.7851C84.8488 106.45 83.0441 107.461 80.7691 107.461C76.0064 107.461 71.644 103.311 71.644 97.9737C71.644 92.5959 76.0086 88.4144 80.7691 88.4144C83.0419 88.4144 84.8443 89.423 85.7851 90.5447H85.9321V88.9956H89.9055L89.9304 88.9933ZM92.3999 78.9704H96.4796V106.886H92.3999V78.9704ZM102.384 97.6503L110.897 94.1156C110.428 92.926 109.02 92.0983 107.362 92.0983C105.236 92.0983 102.278 93.9754 102.387 97.6503H102.384ZM112.38 101.076L115.628 103.241C114.578 104.792 112.055 107.463 107.712 107.463C102.301 107.463 98.2594 103.279 98.2594 97.9375C98.2594 92.2725 102.335 88.4121 107.244 88.4121C112.188 88.4121 114.605 92.3471 115.395 94.4729L115.829 95.5584L103.097 100.832C104.069 102.743 105.589 103.718 107.715 103.718C109.841 103.718 111.322 102.673 112.405 101.081L112.38 101.076ZM15.0005 95.4589V91.4244H28.6191C28.7548 92.13 28.8227 92.9622 28.8227 93.86C28.8227 96.8904 27.9927 100.645 25.3219 103.313C22.7212 106.018 19.4036 107.463 15.005 107.463C6.85457 107.463 0 100.823 0 92.6773C0 84.5314 6.85231 77.8917 15.005 77.8917C16.8807 77.8619 18.7435 78.2071 20.484 78.9069C22.2246 79.6067 23.8079 80.647 25.141 81.9669L22.2915 84.8163C20.5615 83.1926 18.2163 81.9307 15.0027 81.9307C9.05048 81.9307 4.39181 86.725 4.39181 92.6795C4.39181 98.634 9.05048 103.428 15.0027 103.428C18.8631 103.428 21.0635 101.877 22.4724 100.47C23.6145 99.3283 24.3675 97.6955 24.6615 95.468L15.0005 95.4589ZM125.727 106.884V81.1346H133.604C137.539 81.1346 140.696 82.3219 143.08 84.6965C145.463 87.0711 146.66 90.1761 146.66 94.0138C146.66 97.8764 145.466 100.986 143.08 103.349C140.694 105.712 137.535 106.893 133.604 106.893H125.727V106.884ZM129.034 84.2962V103.722H133.602C136.601 103.722 138.962 102.863 140.687 101.151C142.413 99.4391 143.277 97.0804 143.277 94.0116C143.277 90.9902 142.413 88.6156 140.687 86.8879C138.962 85.1601 136.619 84.3233 133.62 84.3233H129.061L129.034 84.2962ZM152.594 106.884H149.288V89.2579H152.454V92.1345H152.596C152.931 91.2005 153.621 90.4022 154.665 89.7419C155.71 89.0815 156.735 88.7536 157.741 88.7536C158.7 88.7536 159.516 88.8961 160.188 89.1833L159.182 92.3833C158.775 92.2159 158.126 92.13 157.237 92.13C155.993 92.13 154.907 92.6343 153.98 93.6407C153.053 94.647 152.594 95.823 152.594 97.1686V106.884ZM166.647 83.1813C166.658 83.8032 166.409 84.4025 165.964 84.8367C165.507 85.2935 164.958 85.5197 164.308 85.5197C163.659 85.5197 163.11 85.2935 162.653 84.8367C162.196 84.3799 161.97 83.8303 161.97 83.1813C161.959 82.5594 162.208 81.9601 162.653 81.5259C163.087 81.0804 163.687 80.8316 164.308 80.8429C164.93 80.8316 165.53 81.0804 165.964 81.5259C166.416 81.9827 166.647 82.5322 166.647 83.1813ZM165.964 89.2602V106.886H162.658V89.2602H165.964ZM178.836 106.884H175.534L168.411 89.2579H172.029L177.203 102.926H177.276L182.527 89.2579H186.055L178.836 106.884ZM195.562 107.461C192.973 107.461 190.836 106.574 189.162 104.799C187.489 103.024 186.638 100.787 186.638 98.0732C186.638 95.3865 187.453 93.1522 189.085 91.3634C190.718 89.5745 192.801 88.6835 195.345 88.6835C197.955 88.6835 200.04 89.5293 201.587 91.2164C203.134 92.9034 203.907 95.2757 203.907 98.322L203.871 98.6838H190.026C190.071 100.409 190.65 101.8 191.752 102.856C192.273 103.369 192.892 103.774 193.571 104.045C194.251 104.317 194.978 104.451 195.709 104.439C197.819 104.439 199.475 103.383 200.673 101.273L203.622 102.712C202.831 104.2 201.734 105.362 200.332 106.201C198.93 107.04 197.337 107.461 195.562 107.461ZM190.275 95.927H200.384C200.348 95.3463 200.198 94.7783 199.942 94.2559C199.685 93.7335 199.328 93.2669 198.891 92.8831C197.991 92.0735 196.788 91.6777 195.277 91.6777C194.033 91.6777 192.957 92.0622 192.059 92.8311C191.161 93.6 190.567 94.6289 190.279 95.9248L190.275 95.927Z" fill="white"/>
<path d="M77.2377 65.7292L64.0264 42.855L88.7567 0L101.968 22.8742L77.2377 65.7292Z" fill="#0DA960"/>
<path d="M77.2377 65.7294L90.4491 42.8552H139.91L126.698 65.7294H77.2377Z" fill="url(#paint0_radial_145_286)"/>
<path d="M139.91 42.855H113.487L88.7568 0H115.179L139.91 42.855Z" fill="url(#paint1_radial_145_286)"/>
<path d="M101.968 42.8549H90.4491L96.1813 32.8645L77.2377 65.7291L101.968 42.8549Z" fill="#2D6FDD"/>
<path d="M113.487 42.8549H139.91L107.755 32.8645L113.487 42.8549Z" fill="#E5B93C"/>
<path d="M96.1813 32.8646L101.968 22.8742L88.7568 0L96.1813 32.8646Z" fill="#0C9B57"/>
<defs>
<radialGradient id="paint0_radial_145_286" cx="0" cy="0" r="1" gradientUnits="userSpaceOnUse" gradientTransform="translate(183.954 46.3505) rotate(30.0005) scale(147.874 147.874)">
<stop stop-color="#4387FD"/>
<stop offset="0.65" stop-color="#3078F0"/>
<stop offset="0.91" stop-color="#2B72EA"/>
<stop offset="1" stop-color="#286EE6"/>
</radialGradient>
<radialGradient id="paint1_radial_145_286" cx="0" cy="0" r="1" gradientUnits="userSpaceOnUse" gradientTransform="translate(183.958 46.3545) rotate(30.0005) scale(147.865 147.865)">
<stop stop-color="#FFD24D"/>
<stop offset="1" stop-color="#F6C338"/>
</radialGradient>
</defs>
</svg>
