<svg width="461" height="84" viewBox="0 0 461 84" fill="none" xmlns="http://www.w3.org/2000/svg">
<path d="M9.78102 66.1648C8.08654 66.1685 6.42145 65.7224 4.95584 64.8719C3.49024 64.0215 2.27666 62.7972 1.43909 61.3242C0.61433 59.8616 0.203004 58.2021 0.249166 56.5236C0.295327 54.8451 0.797238 53.2108 1.70114 51.7957L18.88 24.8191C19.7592 23.3693 21.0076 22.1788 22.4974 21.3693C23.9873 20.5597 25.6654 20.1602 27.3602 20.2114C29.0538 20.252 30.7061 20.7418 32.1482 21.6307C33.5903 22.5196 34.7703 23.7757 35.5675 25.2704C37.1689 28.2986 36.9687 31.9418 35.0507 34.7843L17.8827 61.7609C17.0121 63.1176 15.8131 64.2325 14.3969 65.0023C12.9806 65.7722 11.393 66.172 9.78102 66.1648Z" fill="#F62B54"/>
<path d="M39.2476 66.1641C35.7827 66.1641 32.5944 64.3116 30.9202 61.3344C30.0973 59.8758 29.6869 58.2207 29.7331 56.5466C29.7792 54.8725 30.2802 53.2425 31.1822 51.8314L48.3283 24.9167C49.1946 23.4465 50.4385 22.2348 51.9309 21.4073C53.4233 20.5798 55.1099 20.1667 56.8158 20.2107C60.3099 20.2871 63.4763 22.2416 65.0777 25.2989C66.6682 28.3561 66.4353 32.0212 64.459 34.8564L47.3165 61.7712C46.4486 63.122 45.2545 64.2326 43.8443 65.0003C42.4341 65.7681 40.8532 66.1683 39.2476 66.1641Z" fill="#FFCC00"/>
<path d="M68.0548 66.3897C72.9393 66.3897 76.899 62.5131 76.899 57.7311C76.899 52.9491 72.9393 49.0725 68.0548 49.0725C63.1703 49.0725 59.2106 52.9491 59.2106 57.7311C59.2106 62.5131 63.1703 66.3897 68.0548 66.3897Z" fill="#00CA72"/>
<path d="M452.272 49.5749C454.943 49.5749 456.541 51.4748 456.541 54.5866V65.2506H460.169V54.3427C460.169 49.0508 457.676 45.9826 452.989 45.9826C451.154 45.9826 448.243 46.4849 446.506 49.8588C446.103 48.8636 445.438 47.9963 444.581 47.3491C443.724 46.7018 442.708 46.2988 441.64 46.1828C440.968 46.0597 440.284 46.0194 439.602 46.0627C438.11 46.1828 435.453 47.1109 434.459 49.2146V46.3866H430.827V65.2506H434.459V55.0707C434.459 51.1108 437.051 49.5749 439.646 49.5749C442.077 49.5749 443.675 51.4347 443.675 54.5466V65.2506H447.285V55.0707C447.285 51.9188 449.178 49.5385 452.272 49.5749ZM417.495 62.0987C419.155 62.1351 420.756 61.4727 421.917 60.2716C423.082 59.0706 423.701 57.4364 423.639 55.7585C423.639 51.9588 420.844 49.5749 417.495 49.5749C414.143 49.5749 411.352 51.9588 411.352 55.7585C411.286 57.4328 411.905 59.0633 413.062 60.2607C414.22 61.4618 415.814 62.1278 417.466 62.0987H417.495ZM417.495 65.6364C412.189 65.6364 407.759 61.7166 407.759 55.7367C407.759 49.7569 412.189 45.9608 417.495 45.9608C422.802 45.9608 427.268 49.7569 427.268 55.7367C427.268 61.7166 422.776 65.6546 417.47 65.6546L417.495 65.6364ZM389.07 55.7367L389.034 55.7585C389.034 49.7787 393.58 45.9826 398.922 45.9608C400.265 45.9348 401.597 46.1909 402.834 46.7125C404.071 47.2342 405.185 48.0097 406.103 48.9889L403.352 51.3328C402.767 50.7589 402.075 50.3065 401.315 50.0017C400.555 49.6968 399.741 49.5456 398.922 49.5567C395.574 49.5567 392.662 51.9406 392.662 55.7367C392.662 58.3026 394.187 60.6138 396.528 61.5964C398.868 62.5791 401.561 62.0332 403.352 60.2207L406.143 62.5646C405.222 63.5539 404.103 64.3386 402.859 64.8677C401.615 65.3969 400.274 65.6588 398.922 65.6364C393.62 65.6364 389.07 61.7166 389.07 55.7367ZM377.449 61.6292C377.445 61.2994 377.506 60.9721 377.629 60.6659C377.752 60.3598 377.933 60.0808 378.164 59.8449C378.394 59.609 378.669 59.4208 378.972 59.291C379.275 59.1613 379.601 59.0926 379.931 59.0888C380.261 59.0926 380.587 59.1613 380.89 59.291C381.193 59.4208 381.468 59.609 381.698 59.8449C381.929 60.0808 382.111 60.3598 382.233 60.6659C382.356 60.9721 382.417 61.2994 382.413 61.6292C382.381 62.2679 382.106 62.8702 381.645 63.3132C381.184 63.7562 380.571 64.0065 379.931 64.0131C379.292 64.0065 378.679 63.7562 378.217 63.3132C377.756 62.8702 377.481 62.2679 377.449 61.6292Z" fill="white"/>
<path fill-rule="evenodd" clip-rule="evenodd" d="M387.378 22.4053H374.454L365.395 45.7605L356.383 22.4053H343.459L359.171 59.3107L349.399 83.7105H362.228L387.378 22.4053ZM308.777 42.9326C308.777 48.8287 313.931 52.7085 318.993 52.7085C323.969 52.7085 328.857 49.098 328.857 42.9289C328.857 36.7598 323.969 33.1457 318.993 33.1457C313.931 33.1457 308.777 37.0328 308.777 42.9326ZM328.857 63.5399V58.8703C326.236 62.8375 320.122 64.337 316.984 64.337C306.597 64.337 296.206 56.1479 296.206 42.9289C296.206 29.7136 306.593 21.5245 316.984 21.5245C319.601 21.5245 325.716 22.398 328.857 26.9839V22.4199H340.904V63.5472L328.857 63.5399ZM292.778 63.5399H280.73V58.43C278.718 62.2151 273.837 64.4207 268.771 64.4207C258.292 64.4207 249.037 56.0533 249.037 43.0964C249.037 29.8956 258.292 21.5172 268.771 21.5172C273.83 21.5172 278.725 23.6282 280.73 27.417V0H292.778V63.5399ZM280.468 42.838C280.468 36.6725 276.017 33.0584 271.042 33.0584C265.888 33.0584 261.608 36.9345 261.608 42.838C261.608 48.9306 265.888 52.7886 271.038 52.7886C276.108 52.7959 280.468 48.7414 280.468 42.838ZM219.251 41.7752C219.251 35.5224 222.483 33.4078 226.759 33.4078C230.861 33.4078 233.831 36.1375 233.831 41.5969V63.5326H245.965V38.9582C245.965 27.246 240.2 21.5172 231.032 21.5172C226.231 21.5172 221.431 24.2469 219.247 28.3888V22.4053H207.12V63.5326H219.251V41.7752ZM182.48 64.2387C170.957 64.2387 161.345 55.784 161.345 42.8343C161.345 29.8774 170.946 21.5063 182.48 21.5063C194.014 21.5063 203.699 29.8774 203.699 42.8343C203.699 55.7912 194.003 64.2387 182.48 64.2387ZM182.48 52.2645C187.539 52.2645 191.735 48.5594 191.735 42.838C191.735 37.2876 187.542 33.4988 182.48 33.4988C181.261 33.4797 180.051 33.709 178.923 34.1726C177.796 34.6363 176.774 35.3246 175.921 36.1957C175.063 37.0715 174.39 38.1107 173.942 39.2518C173.494 40.3929 173.279 41.6124 173.312 42.838C173.315 48.5667 177.504 52.2645 182.48 52.2645ZM139.591 33.4114C143.169 33.4114 146.313 36.2321 146.313 41.6005V63.5399H158.36V40.1811C158.36 27.7628 152.322 21.51 142.645 21.51C139.769 21.51 134.354 22.3835 130.423 28.8183C128.152 24.0613 123.788 21.5937 117.338 21.5937C115.099 21.5823 112.904 22.216 111.016 23.4191C109.127 24.6222 107.625 26.3437 106.689 28.3779V22.4089H94.5474V63.5363H106.678V41.7752C106.678 35.5224 110.085 33.4078 113.75 33.4078C117.244 33.4078 120.381 36.1375 120.472 41.3348V63.5363H132.607V41.7752C132.607 35.7953 135.751 33.4114 139.591 33.4114Z" fill="white"/>
</svg>
