<svg width="276" height="96" viewBox="0 0 276 96" fill="none" xmlns="http://www.w3.org/2000/svg">
<path d="M5.98826 4.11749L58.801 0.216982C65.2881 -0.33978 66.9552 0.0356364 71.0339 3.00079L87.8926 14.8773C90.6732 16.9198 91.599 17.4766 91.599 19.7004V84.8351C91.599 88.917 90.1165 91.3317 84.9275 91.7008L23.5978 95.4136C19.7037 95.5981 17.8489 95.0414 15.8095 92.4421L3.39534 76.2992C1.1683 73.3277 0.245667 71.1038 0.245667 68.5045V10.6077C0.245667 7.27035 1.72824 4.48654 5.98826 4.11749Z" fill="black"/>
<path d="M58.801 0.216982L5.98826 4.11749C1.72824 4.48655 0.245667 7.27035 0.245667 10.6077V68.5045C0.245667 71.1038 1.1683 73.3277 3.39534 76.2992L15.8095 92.4421C17.8489 95.0414 19.7037 95.5981 23.5978 95.4136L84.9275 91.7008C90.1133 91.3318 91.599 88.917 91.599 84.8352V19.7004C91.599 17.5911 90.7655 16.9834 88.3126 15.1827C88.1714 15.0811 88.0304 14.9792 87.8894 14.8773L71.0339 3.00079C66.9552 0.0356364 65.2881 -0.33978 58.801 0.216982ZM24.985 18.6346C19.9773 18.9719 18.8415 19.0482 15.9972 16.7353L8.7657 10.9832C8.03078 10.2387 8.39983 9.30969 10.2515 9.12516L61.0217 5.41554C65.2849 5.04331 67.5056 6.52906 69.1727 7.82711L77.8805 14.136C78.2527 14.3237 79.1785 15.4341 78.065 15.4341L25.634 18.5901L24.985 18.6346ZM19.1469 84.2784V28.984C19.1469 26.5693 19.8882 25.4558 22.1089 25.2681L82.3282 21.743C84.3707 21.5584 85.2933 22.8565 85.2933 25.2681V80.1933C85.2933 82.6081 84.9211 84.6506 81.5869 84.8352L23.9605 88.1757C20.6263 88.3602 19.1469 87.2499 19.1469 84.2784ZM76.032 31.9492C76.4011 33.6195 76.032 35.2898 74.3617 35.4806L71.5843 36.031V76.856C69.1727 78.154 66.952 78.8953 65.0972 78.8953C62.1321 78.8953 61.3908 77.9663 59.1701 75.1857L41.007 46.6095V74.2567L46.7527 75.5579C46.7527 75.5579 46.7527 78.8985 42.1173 78.8985L29.3372 79.6398C28.965 78.8953 29.3372 77.0405 30.6321 76.6714L33.9695 75.7456V39.1903L29.3372 38.8149C28.965 37.1446 29.8908 34.733 32.4869 34.5453L46.1992 33.6227L65.0972 62.5679V36.96L60.2804 36.4065C59.9082 34.3608 61.3908 32.875 63.2424 32.6937L76.032 31.9492Z" fill="white"/>
<path d="M132.067 67.6106V42.445H132.503L150.651 67.6106H156.365V30.6289H150.011V55.7691H149.575L131.428 30.6289H125.692V67.6074H132.071L132.067 67.6106ZM174.321 68.1769C182.704 68.1769 187.804 62.692 187.804 53.593C187.804 44.5193 182.679 39.009 174.321 39.009C165.992 39.009 160.841 44.5448 160.841 53.593C160.841 62.692 165.915 68.1769 174.321 68.1769ZM174.321 62.8447C169.889 62.8447 167.353 59.4628 167.353 53.593C167.353 47.7486 169.889 44.3412 174.321 44.3412C178.73 44.3412 181.266 47.7486 181.266 53.593C181.266 59.4628 178.756 62.8447 174.321 62.8447ZM193.61 32.7065V39.7535H189.178V44.8279H193.61V60.1277C193.61 65.5617 196.175 67.7411 202.608 67.7411C203.836 67.7411 205.016 67.6138 205.939 67.4325V62.4598C205.169 62.5361 204.682 62.587 203.785 62.587C201.122 62.587 199.941 61.359 199.941 58.5911V44.8279H205.939V39.7535H199.941V32.7033H193.61V32.7065ZM209.747 67.6106H216.078V39.5721H209.747V67.6106ZM212.9 34.9367C214.999 34.9367 216.692 33.2409 216.692 31.1157C216.692 28.9873 215.003 27.2693 212.9 27.2693C210.825 27.2693 209.107 28.9873 209.107 31.1157C209.107 33.2409 210.825 34.9335 212.9 34.9335V34.9367ZM233.446 68.1769C241.826 68.1769 246.926 62.692 246.926 53.593C246.926 44.5193 241.8 39.009 233.446 39.009C225.113 39.009 219.963 44.5448 219.963 53.593C219.963 62.692 225.037 68.1769 233.446 68.1769ZM233.446 62.8447C229.011 62.8447 226.472 59.4628 226.472 53.593C226.472 47.7486 229.011 44.3412 233.446 44.3412C237.852 44.3412 240.391 47.7486 240.391 53.593C240.391 59.4628 237.878 62.8447 233.446 62.8447ZM250.709 67.6106H257.065V51.2864C257.065 47.16 259.451 44.5448 263.24 44.5448C267.112 44.5448 268.903 46.6987 268.903 50.9778V67.6106H275.263V49.4666C275.263 42.7759 271.853 39.009 265.601 39.009C261.421 39.009 258.602 40.9306 257.269 44.058H256.833V39.5721H250.709V67.6106Z" fill="white"/>
</svg>
