<svg width="142" height="105" viewBox="0 0 142 105" fill="none" xmlns="http://www.w3.org/2000/svg">
<path d="M12.6548 80.4722C9.92225 80.4722 7.70274 81.4589 5.99736 83.4301C4.29198 85.4013 3.43874 87.9905 3.43874 91.1945C3.43874 94.4007 4.2701 96.9801 5.93391 98.9327C7.59663 100.886 9.76473 101.862 12.4382 101.862C15.2922 101.862 17.5412 100.931 19.1864 99.0684C20.8316 97.2066 21.6543 94.5998 21.6543 91.2492C21.6543 87.8144 20.8557 85.1595 19.2597 83.2846C17.6626 81.4097 15.4606 80.4722 12.6548 80.4722ZM12.4382 104.602C8.7485 104.602 5.79389 103.387 3.57548 100.955C1.35487 98.5247 0.245667 95.3623 0.245667 91.4669C0.245667 87.2828 1.37675 83.9442 3.63892 81.4523C5.9 78.9604 8.97822 77.7156 12.8736 77.7156C16.4648 77.7156 19.3593 78.9243 21.5547 81.344C23.7491 83.7626 24.8473 86.9251 24.8473 90.8325C24.8473 95.0779 23.7228 98.4339 21.4727 100.901C19.2225 103.368 16.211 104.602 12.4382 104.602Z" fill="white"/>
<path d="M43.4993 104.167H40.5239V93.5714C40.5239 89.629 39.0844 87.6568 36.2063 87.6568C34.7175 87.6568 33.4869 88.2168 32.5133 89.3348C31.5398 90.4538 31.053 91.8661 31.053 93.5714V104.167H28.0776V85.5882H31.053V88.673H31.1263C32.5287 86.3266 34.5611 85.1528 37.2215 85.1528C39.2539 85.1528 40.8072 85.8092 41.8847 87.1218C42.9611 88.4345 43.4993 90.3302 43.4993 92.809V104.167Z" fill="white"/>
<path d="M59.5019 93.1C59.4898 91.3826 59.0763 90.0458 58.2592 89.0898C57.4431 88.1348 56.3099 87.6568 54.8583 87.6568C53.4548 87.6568 52.2636 88.1589 51.2834 89.163C50.3044 90.1672 49.6995 91.4788 49.4698 93.1H59.5019ZM62.5505 95.6214H49.4337C49.4818 97.6899 50.0375 99.2859 51.1029 100.412C52.1662 101.536 53.6298 102.098 55.4927 102.098C57.5854 102.098 59.5084 101.409 61.2619 100.03V102.825C59.6298 104.009 57.4705 104.602 54.785 104.602C52.1607 104.602 50.0976 103.759 48.599 102.071C47.0982 100.384 46.3489 98.0105 46.3489 94.9497C46.3489 92.0597 47.1682 89.7045 48.8079 87.8843C50.4455 86.064 52.4812 85.1528 54.9119 85.1528C57.3436 85.1528 59.224 85.9393 60.5553 87.5124C61.8854 89.0843 62.5505 91.2677 62.5505 94.0615V95.6214Z" fill="white"/>
<path d="M69.01 80.9072V101.409H72.8933C76.3041 101.409 78.959 100.496 80.858 98.6688C82.7559 96.8431 83.7065 94.2549 83.7065 90.9043C83.7065 84.2403 80.1623 80.9072 73.0749 80.9072H69.01ZM65.9624 104.167V78.1506H73.1471C82.315 78.1506 86.8985 82.3774 86.8985 90.8321C86.8985 94.8478 85.6263 98.0737 83.0797 100.511C80.5342 102.948 77.1256 104.167 72.8572 104.167H65.9624Z" fill="white"/>
<path d="M100.05 88.6005C99.5297 88.2013 98.7804 88.0011 97.8014 88.0011C96.5313 88.0011 95.4692 88.6005 94.617 89.7972C93.7638 90.9951 93.3372 92.6282 93.3372 94.6957V104.167H90.3618V85.5879H93.3372V89.4166H93.4105C93.8338 88.1105 94.4803 87.092 95.351 86.3591C96.2218 85.6284 97.1953 85.262 98.2728 85.262C99.0462 85.262 99.6391 85.3462 100.05 85.5157V88.6005Z" fill="white"/>
<path d="M105.233 104.167H102.258V85.5881H105.233V104.167ZM103.782 80.8712C103.25 80.8712 102.796 80.6896 102.421 80.3275C102.047 79.9644 101.859 79.5049 101.859 78.9481C101.859 78.3924 102.047 77.9297 102.421 77.56C102.796 77.1913 103.25 77.0076 103.782 77.0076C104.326 77.0076 104.789 77.1913 105.17 77.56C105.55 77.9297 105.741 78.3924 105.741 78.9481C105.741 79.4809 105.55 79.9348 105.17 80.3089C104.789 80.6841 104.326 80.8712 103.782 80.8712Z" fill="white"/>
<path d="M124.607 85.5881L117.205 104.167H114.284L107.245 85.5881H110.51L115.227 99.0868C115.578 100.079 115.796 100.943 115.881 101.681H115.953C116.074 100.749 116.267 99.9094 116.534 99.159L121.469 85.5881H124.607Z" fill="white"/>
<mask id="mask0_145_295" style="mask-type:luminance" maskUnits="userSpaceOnUse" x="124" y="84" width="18" height="21">
<path d="M124.799 84.9241H141.245V104.807H124.799V84.9241Z" fill="white"/>
</mask>
<g mask="url(#mask0_145_295)">
<path d="M138.198 93.0997C138.186 91.3823 137.771 90.0456 136.955 89.0895C136.138 88.1345 135.005 87.6565 133.553 87.6565C132.15 87.6565 130.958 88.1586 129.979 89.1628C128.999 90.167 128.394 91.4786 128.165 93.0997H138.198ZM141.245 95.6211H128.128C128.177 97.6897 128.733 99.2857 129.798 100.411C130.862 101.536 132.326 102.098 134.189 102.098C136.28 102.098 138.203 101.409 139.958 100.03V102.824C138.325 104.009 136.165 104.602 133.481 104.602C130.856 104.602 128.794 103.759 127.294 102.071C125.794 100.384 125.045 98.0102 125.045 94.9495C125.045 92.0594 125.863 89.7043 127.503 87.884C129.141 86.0638 131.176 85.1526 133.608 85.1526C136.038 85.1526 137.919 85.9391 139.25 87.5121C140.58 89.084 141.245 91.2675 141.245 94.0613V95.6211Z" fill="white"/>
</g>
<path d="M58.6438 18.1449V18.1409L80.0456 30.9606L92.7975 25.5942C95.3881 24.4751 98.1819 23.8996 101.005 23.9016C101.475 23.9016 101.941 23.9235 102.403 23.9534C98.0325 6.90835 80.6709 -3.36447 63.6258 1.00631C55.9496 2.97565 49.2829 7.73272 44.9261 14.3516C45.0356 14.3516 45.1431 14.3436 45.2526 14.3436C49.9818 14.3377 54.6194 15.6539 58.6418 18.1449H58.6438Z" fill="#0364B8"/>
<path d="M58.6437 18.1408V18.1448C54.6214 15.6538 49.9838 14.3376 45.2546 14.3435C45.1451 14.3435 45.0376 14.3495 44.9281 14.3515C30.86 14.5267 19.5955 26.0739 19.7707 40.1421C19.8344 45.2456 21.4294 50.2118 24.3486 54.3994L43.2216 46.4563L51.6107 42.9258L70.2905 35.0644L80.0456 30.9584L58.6437 18.1388V18.1408Z" fill="#0078D4"/>
<path d="M102.405 23.9534C101.943 23.9215 101.477 23.9016 101.007 23.9016C98.1838 23.8996 95.3901 24.4751 92.7995 25.5962L80.0476 30.9606L83.7453 33.1748L95.868 40.4349L101.157 43.603L119.241 54.4353C124.665 44.3656 120.9 31.8068 110.83 26.3827C108.228 24.9809 105.356 24.1525 102.407 23.9534H102.405Z" fill="#1490DF"/>
<path d="M101.155 43.6048L95.866 40.4367L83.7433 33.1767L80.0456 30.9624L70.2905 35.0683L51.6107 42.9298L43.2216 46.4602L24.3486 54.4033C29.1096 61.2472 36.9193 65.3273 45.2566 65.3213H101.009C108.626 65.3233 115.627 61.1437 119.241 54.4391L101.157 43.6068L101.155 43.6048Z" fill="#28A8EA"/>
</svg>
